<svg width="0" height="0" class="hidden">
  <symbol xmlns="http://www.w3.org/2000/svg" viewBox="0 0 24 24" id="like">
    <path d="M20.763 12.51c.394-.52.612-1.158.612-1.822 0-1.052-.588-2.048-1.535-2.604a1.586 1.586 0 00-.804-.218h-5.62l.14-2.88a2.509 2.509 0 00-.691-1.861 2.499 2.499 0 00-1.826-.783c-1.219 0-2.297.82-2.62 1.995l-2.014 7.289h-3.03a.75.75 0 00-.75.75v8.531c0 .415.335.75.75.75h14.093c.216 0 .427-.042.621-.127a3.014 3.014 0 001.709-3.642 3.016 3.016 0 00.485-2.688c.394-.52.611-1.158.611-1.821a3.2 3.2 0 00-.13-.87zm-16.45 7.46v-6.657H6.21v6.657H4.312zm14.915-8.274l-.513.445.326.596a1.338 1.338 0 01-.298 1.648l-.513.445.325.595a1.338 1.338 0 01-.298 1.648l-.512.445.325.595a1.332 1.332 0 01-.626 1.854H7.712v-6.729l2.332-8.449a1.033 1.033 0 01.989-.757.833.833 0 01.837.872l-.225 4.65h7.368c.418.255.675.687.675 1.134 0 .387-.168.753-.459 1.008z"></path>
  </symbol>
  <symbol xmlns="http://www.w3.org/2000/svg" viewBox="0 0 24 24" id="message">
    <path d="M10.875 12a1.125 1.125 0 102.25 0 1.125 1.125 0 00-2.25 0zm4.688 0a1.125 1.125 0 102.25 0 1.125 1.125 0 00-2.25 0zm-9.375 0a1.125 1.125 0 102.25 0 1.125 1.125 0 00-2.25 0zm15.497-4.069A10.503 10.503 0 0012 1.5h-.047A10.475 10.475 0 001.5 12.05a10.533 10.533 0 001.125 4.684v3.563a1.078 1.078 0 001.078 1.078h3.565a10.533 10.533 0 004.685 1.125h.05c1.403 0 2.765-.272 4.047-.804a10.417 10.417 0 003.347-2.231 10.475 10.475 0 003.103-7.418 10.46 10.46 0 00-.815-4.116zm-3.542 10.266A8.673 8.673 0 0112 20.719h-.04a8.75 8.75 0 01-4.057-1.02l-.197-.105h-3.3v-3.3l-.105-.197a8.75 8.75 0 01-1.02-4.057 8.665 8.665 0 012.522-6.183 8.653 8.653 0 016.16-2.576h.04c1.171 0 2.308.228 3.38.678a8.664 8.664 0 012.788 1.875 8.683 8.683 0 012.552 6.206 8.685 8.685 0 01-2.58 6.157z"></path>
  </symbol>
  <symbol xmlns="http://www.w3.org/2000/svg" viewBox="0 0 24 24" id="save">
    <path d="M20.937 6.874l-3.811-3.81a1.494 1.494 0 00-.626-.376v-.063H3.375a.75.75 0 00-.75.75v17.25c0 .415.335.75.75.75h17.25a.75.75 0 00.75-.75V7.934c0-.399-.157-.779-.438-1.06zM9 4.313h6V6.75H9V4.312zm10.688 15.375H4.313V4.313H7.5V7.5c0 .415.335.75.75.75h7.5a.75.75 0 00.75-.75V4.823l3.188 3.188v11.677zM12 10.358a3.376 3.376 0 10.002 6.752A3.376 3.376 0 0012 10.36zm0 5.25a1.875 1.875 0 110-3.749 1.875 1.875 0 010 3.75z"></path>
  </symbol>
  <symbol xmlns="http://www.w3.org/2000/svg" viewBox="0 0 24 24" id="share">
    <path d="M17.625 15.563a2.8 2.8 0 00-1.767.625l-4.856-3.513a3.767 3.767 0 000-1.35l4.856-3.513a2.8 2.8 0 001.767.625 2.815 2.815 0 002.813-2.812 2.815 2.815 0 00-2.813-2.813 2.815 2.815 0 00-2.702 3.593l-4.613 3.34A3.749 3.749 0 003.562 12a3.749 3.749 0 006.748 2.255l4.613 3.34a2.815 2.815 0 002.702 3.593 2.815 2.815 0 002.813-2.813 2.815 2.815 0 00-2.813-2.813zm0-11.157a1.22 1.22 0 11-.001 2.439 1.22 1.22 0 01.001-2.439zM7.312 14.063A2.066 2.066 0 015.25 12c0-1.137.926-2.063 2.063-2.063 1.136 0 2.062.926 2.062 2.063a2.066 2.066 0 01-2.063 2.063zm10.313 5.53a1.22 1.22 0 11.001-2.438 1.22 1.22 0 01-.001 2.439z"></path>
  </symbol>
  <symbol xmlns="http://www.w3.org/2000/svg" viewBox="0 0 24 24" id="exit">
    <path d="M16.5371 2.92734C16.5084 2.91289 16.4765 2.90604 16.4444 2.90747C16.4123 2.90889 16.3811 2.91854 16.3538 2.93548C16.3265 2.95242 16.3041 2.97608 16.2885 3.00421C16.273 3.03233 16.265 3.06397 16.2652 3.09609V4.60078C16.2652 4.72969 16.3332 4.84922 16.441 4.91953C16.9695 5.2522 17.4586 5.64376 17.8988 6.08672C18.6652 6.85547 19.2676 7.74844 19.6871 8.74219C20.121 9.77093 20.3434 10.8765 20.341 11.993C20.341 13.1203 20.1207 14.2148 19.6871 15.2438C19.268 16.2361 18.6608 17.1378 17.8988 17.8992C17.1394 18.6631 16.2382 19.2713 15.2457 19.6898C14.2191 20.1258 13.1246 20.3461 11.9996 20.3461C10.8746 20.3461 9.78007 20.1258 8.7535 19.6898C7.76102 19.2713 6.85978 18.6631 6.10038 17.8992C5.33843 17.1378 4.73115 16.2361 4.3121 15.2438C3.87823 14.215 3.65584 13.1095 3.65819 11.993C3.65819 10.8656 3.8785 9.77109 4.3121 8.74219C4.73163 7.74844 5.33397 6.85547 6.10038 6.08672C6.54569 5.64141 7.03319 5.25234 7.55819 4.91953C7.66835 4.85156 7.73397 4.72969 7.73397 4.60078V3.09375C7.73397 2.95312 7.58632 2.86406 7.4621 2.925C4.18319 4.575 1.92147 7.95234 1.8746 11.8664C1.80897 17.4633 6.38632 22.1133 11.9808 22.125C17.5824 22.1367 22.1246 17.5945 22.1246 11.9906C22.1246 8.025 19.8512 4.59141 16.5371 2.92734ZM11.2496 13.125H12.7496C12.8527 13.125 12.9371 13.0406 12.9371 12.9375V2.0625C12.9371 1.95937 12.8527 1.875 12.7496 1.875H11.2496C11.1465 1.875 11.0621 1.95937 11.0621 2.0625V12.9375C11.0621 13.0406 11.1465 13.125 11.2496 13.125Z"></path>
  </symbol>
  <symbol xmlns="http://www.w3.org/2000/svg" viewBox="0 0 348.882 348.882" id="edit">
    <path d="M333.988,11.758l-0.42-0.383C325.538,4.04,315.129,0,304.258,0c-12.187,0-23.888,5.159-32.104,14.153L116.803,184.231 c-1.416,1.55-2.49,3.379-3.154,5.37l-18.267,54.762c-2.112,6.331-1.052,13.333,2.835,18.729c3.918,5.438,10.23,8.685,16.886,8.685 c0,0,0.001,0,0.001,0c2.879,0,5.693-0.592,8.362-1.76l52.89-23.138c1.923-0.841,3.648-2.076,5.063-3.626L336.771,73.176 C352.937,55.479,351.69,27.929,333.988,11.758z M130.381,234.247l10.719-32.134l0.904-0.99l20.316,18.556l-0.904,0.99 L130.381,234.247z M314.621,52.943L182.553,197.53l-20.316-18.556L294.305,34.386c2.583-2.828,6.118-4.386,9.954-4.386 c3.365,0,6.588,1.252,9.082,3.53l0.419,0.383C319.244,38.922,319.63,47.459,314.621,52.943z"></path>
    <path d="M303.85,138.388c-8.284,0-15,6.716-15,15v127.347c0,21.034-17.113,38.147-38.147,38.147H68.904 c-21.035,0-38.147-17.113-38.147-38.147V100.413c0-21.034,17.113-38.147,38.147-38.147h131.587c8.284,0,15-6.716,15-15 s-6.716-15-15-15H68.904c-37.577,0-68.147,30.571-68.147,68.147v180.321c0,37.576,30.571,68.147,68.147,68.147h181.798 c37.576,0,68.147-30.571,68.147-68.147V153.388C318.85,145.104,312.134,138.388,303.85,138.388z"></path>
  </symbol>
  <symbol xmlns="http://www.w3.org/2000/svg" viewBox="0 0 16 16" id="fire">
    <path d="M13.0328 7.33147C12.7295 6.64875 12.2885 6.03597 11.7375 5.53147L11.2828 5.11428C11.2674 5.10051 11.2488 5.09073 11.2287 5.08581C11.2086 5.08089 11.1876 5.08099 11.1675 5.08608C11.1475 5.09117 11.129 5.1011 11.1137 5.11501C11.0984 5.12892 11.0867 5.14638 11.0797 5.16585L10.8766 5.74866C10.75 6.11428 10.5172 6.48772 10.1875 6.85491C10.1656 6.87835 10.1406 6.8846 10.1234 6.88616C10.1063 6.88772 10.0797 6.8846 10.0562 6.86272C10.0344 6.84397 10.0234 6.81585 10.025 6.78772C10.0828 5.8471 9.80156 4.78616 9.18594 3.63147C8.67656 2.6721 7.96875 1.92366 7.08437 1.40178L6.43906 1.0221C6.35469 0.972098 6.24688 1.03772 6.25156 1.13616L6.28594 1.88616C6.30937 2.39866 6.25 2.85179 6.10938 3.22835C5.9375 3.68929 5.69062 4.11741 5.375 4.50179C5.15535 4.76891 4.90639 5.01053 4.63281 5.2221C3.97391 5.72861 3.43815 6.37762 3.06562 7.12054C2.69402 7.86993 2.50045 8.695 2.5 9.53147C2.5 10.269 2.64531 10.983 2.93281 11.6565C3.21042 12.3049 3.61103 12.8933 4.1125 13.3893C4.61875 13.8893 5.20625 14.283 5.86094 14.5565C6.53906 14.8408 7.25781 14.9846 8 14.9846C8.74219 14.9846 9.46094 14.8408 10.1391 14.558C10.7921 14.2862 11.386 13.8898 11.8875 13.3908C12.3938 12.8908 12.7906 12.3065 13.0672 11.658C13.3543 10.9864 13.5015 10.2634 13.5 9.53303C13.5 8.77053 13.3438 8.02991 13.0328 7.33147ZM11.1406 12.633C10.3016 13.4643 9.1875 13.9205 8 13.9205C6.8125 13.9205 5.69844 13.4643 4.85938 12.633C4.02344 11.8033 3.5625 10.7033 3.5625 9.53303C3.5625 8.85335 3.71563 8.20179 4.01719 7.59554C4.31094 7.00335 4.74844 6.47366 5.27969 6.06585C5.6185 5.80678 5.9258 5.50891 6.19531 5.17835C6.58594 4.70179 6.89219 4.17053 7.10469 3.60022C7.19185 3.36497 7.25519 3.12156 7.29375 2.87366C7.67031 3.22054 7.98594 3.63928 8.25 4.12991C8.77187 5.10803 9.0125 5.97835 8.96562 6.71897C8.95443 6.8934 8.98291 7.06811 9.04895 7.22994C9.11498 7.39178 9.21684 7.53654 9.34688 7.65335C9.45956 7.75514 9.59135 7.83352 9.73458 7.88395C9.87782 7.93438 10.0296 7.95584 10.1812 7.9471C10.4891 7.93147 10.7719 7.79554 10.9781 7.56585C11.1859 7.33304 11.3656 7.09554 11.5156 6.85335C11.7344 7.13304 11.9172 7.43772 12.0625 7.76585C12.3109 8.32522 12.4375 8.92053 12.4375 9.53303C12.4375 10.7033 11.9766 11.8049 11.1406 12.633Z"></path>
  </symbol>
  <symbol xmlns="http://www.w3.org/2000/svg" viewBox="0 0 16 16" id="video">
    <path d="M14.25 4.72344L12.25 5.875V3.5C12.25 2.94844 11.8016 2.5 11.25 2.5H2C1.44844 2.5 1 2.94844 1 3.5V12.5C1 13.0516 1.44844 13.5 2 13.5H11.25C11.8016 13.5 12.25 13.0516 12.25 12.5V10.125L14.25 11.2766C14.5828 11.4688 15 11.2281 15 10.8453V5.15625C15 4.77187 14.5828 4.53125 14.25 4.72344ZM11.125 12.375H2.125V3.625H11.125V12.375ZM13.875 9.76562L12.25 8.83125V7.17031L13.875 6.23438V9.76562ZM3.25 5.625H5C5.06875 5.625 5.125 5.56875 5.125 5.5V4.75C5.125 4.68125 5.06875 4.625 5 4.625H3.25C3.18125 4.625 3.125 4.68125 3.125 4.75V5.5C3.125 5.56875 3.18125 5.625 3.25 5.625Z"></path>
  </symbol>
  <symbol xmlns="http://www.w3.org/2000/svg" viewBox="0 0 16 16" id="photo">
    <path d="M14.5 2.5H1.5C1.22344 2.5 1 2.72344 1 3V13C1 13.2766 1.22344 13.5 1.5 13.5H14.5C14.7766 13.5 15 13.2766 15 13V3C15 2.72344 14.7766 2.5 14.5 2.5ZM13.875 12.375H2.125V11.7516L4.28906 9.18437L6.63438 11.9656L10.2828 7.64062L13.875 11.9V12.375ZM13.875 10.3469L10.3781 6.2C10.3281 6.14062 10.2375 6.14062 10.1875 6.2L6.63438 10.4125L4.38438 7.74531C4.33438 7.68594 4.24375 7.68594 4.19375 7.74531L2.125 10.1984V3.625H13.875V10.3469ZM4.75 7.125C4.93057 7.125 5.10937 7.08943 5.27619 7.02033C5.44301 6.95123 5.59459 6.84995 5.72227 6.72227C5.84995 6.59459 5.95123 6.44301 6.02033 6.27619C6.08943 6.10937 6.125 5.93057 6.125 5.75C6.125 5.56943 6.08943 5.39063 6.02033 5.22381C5.95123 5.05699 5.84995 4.90541 5.72227 4.77773C5.59459 4.65005 5.44301 4.54877 5.27619 4.47967C5.10937 4.41057 4.93057 4.375 4.75 4.375C4.38533 4.375 4.03559 4.51987 3.77773 4.77773C3.51987 5.03559 3.375 5.38533 3.375 5.75C3.375 6.11467 3.51987 6.46441 3.77773 6.72227C4.03559 6.98013 4.38533 7.125 4.75 7.125ZM4.75 5.3125C4.99219 5.3125 5.1875 5.50781 5.1875 5.75C5.1875 5.99219 4.99219 6.1875 4.75 6.1875C4.50781 6.1875 4.3125 5.99219 4.3125 5.75C4.3125 5.50781 4.50781 5.3125 4.75 5.3125Z"></path>
  </symbol>
</svg>
